<?xml version="1.0" encoding="UTF-8"?>
<svg id="Capa_1" data-name="Capa 1" xmlns="http://www.w3.org/2000/svg" viewBox="0 0 1080 1126.29">
  <defs>
    <style>
      .cls-1 {
        fill: #fff;
      }
    </style>
  </defs>
  <g>
    <g>
      <path class="cls-1" d="M104.42,60.09v-11.43c0-4.6-3.73-8.33-8.33-8.33h-43.72l79.4,79.4-19.33,19.33L42.9,69.53v42.19c0,7.55-3.06,14.38-8.01,19.33-4.95,4.95-11.79,8.01-19.33,8.01V12.98h88.12c15.51,0,28.08,12.57,28.08,28.08v34.95h-11.42c-8.79,0-15.93-7.13-15.93-15.93Z"/>
      <path class="cls-1" d="M28.98,154.44h19.64c4.08,0,7.62,2.82,8.53,6.8l14.69,64.17c.33,1.46,2.41,1.49,2.78.04l15.68-60.93c1.53-5.93,6.88-10.08,13-10.08h19.69c4.83,0,8.75,3.92,8.75,8.75v102.03c0,7.42-6.01,13.43-13.43,13.43h-6.15c-4.29,0-7.76-3.48-7.76-7.76v-83.97c0-1.7-2.43-1.98-2.83-.33l-13.33,56.37c-1.15,4.88-5.51,8.32-10.52,8.32h-9.6c-5.09,0-9.5-3.56-10.57-8.54l-11.84-54.96c-.36-1.68-2.83-1.42-2.83.3v77.13c0,7.42-6.01,13.43-13.43,13.43h-6.15c-4.29,0-7.76-3.48-7.76-7.76v-103.02c0-7.42,6.01-13.43,13.43-13.43Z"/>
      <circle class="cls-1" cx="73.66" cy="139.06" r="17.5"/>
    </g>
    <g>
      <path class="cls-1" d="M43.52,509.87v11.43c0,4.6,3.73,8.33,8.33,8.33h43.72l-79.4-79.4,19.33-19.33,69.53,69.53v-42.19c0-7.55,3.06-14.38,8.01-19.33,4.95-4.95,11.79-8.01,19.33-8.01v126.07H44.26c-15.51,0-28.08-12.57-28.08-28.08v-34.95h11.42c8.79,0,15.93,7.13,15.93,15.93Z"/>
      <path class="cls-1" d="M118.95,415.52h-19.64c-4.08,0-7.62-2.82-8.53-6.8l-14.69-64.17c-.33-1.46-2.41-1.49-2.78-.04l-15.68,60.93c-1.53,5.93-6.88,10.08-13,10.08h-19.69c-4.83,0-8.75-3.92-8.75-8.75v-102.03c0-7.42,6.01-13.43,13.43-13.43h6.15c4.29,0,7.76,3.48,7.76,7.76v83.97c0,1.7,2.43,1.98,2.83.33l13.33-56.37c1.15-4.88,5.51-8.32,10.52-8.32h9.6c5.09,0,9.5,3.56,10.57,8.54l11.84,54.96c.36,1.68,2.83,1.42,2.83-.3v-77.13c0-7.42,6.01-13.43,13.43-13.43h6.15c4.29,0,7.76,3.48,7.76,7.76v103.02c0,7.42-6.01,13.43-13.43,13.43Z"/>
      <circle class="cls-1" cx="74.28" cy="430.91" r="17.5"/>
    </g>
    <g>
      <path class="cls-1" d="M238.14,509.87v11.43c0,4.6-3.73,8.33-8.33,8.33h-43.72s79.4-79.4,79.4-79.4l-19.33-19.33-69.53,69.53v-42.19c0-7.55-3.06-14.38-8.01-19.33-4.95-4.95-11.79-8.01-19.33-8.01v126.07s88.12,0,88.12,0c15.51,0,28.08-12.57,28.08-28.08v-34.95s-11.42,0-11.42,0c-8.79,0-15.93,7.13-15.93,15.93Z"/>
      <path class="cls-1" d="M149.28,402.09v-103.02c0-4.29,3.48-7.76,7.76-7.76h6.15c7.42,0,13.43,6.01,13.43,13.43v77.13c0,1.72,2.47,1.98,2.83.3l11.84-54.96c1.07-4.98,5.48-8.54,10.57-8.54h9.6c5.01,0,9.37,3.45,10.52,8.32l13.33,56.37c.39,1.65,2.83,1.37,2.83-.33v-83.97c0-4.29,3.48-7.76,7.76-7.76h6.15c7.42,0,13.43,6.01,13.43,13.43v102.03c0,4.83-3.92,8.75-8.75,8.75h-19.69c-6.13,0-11.48-4.15-13-10.08l-15.68-60.93c-.37-1.45-2.45-1.43-2.78.04l-14.69,64.17c-.91,3.98-4.45,6.8-8.53,6.8h-19.64c-7.42,0-13.43-6.01-13.43-13.43Z"/>
      <circle class="cls-1" cx="207.38" cy="430.91" r="17.5"/>
    </g>
    <g>
      <path class="cls-1" d="M177.25,60.09v-11.43c0-4.6,3.73-8.33,8.33-8.33h43.72s-79.4,79.4-79.4,79.4l19.33,19.33,69.53-69.53v42.19c0,7.55,3.06,14.38,8.01,19.33,4.95,4.95,11.79,8.01,19.33,8.01V12.98s-88.12,0-88.12,0c-15.51,0-28.08,12.57-28.08,28.08v34.95s11.42,0,11.42,0c8.79,0,15.93-7.13,15.93-15.93Z"/>
      <path class="cls-1" d="M266.11,167.87v103.02c0,4.29-3.48,7.76-7.76,7.76h-6.15c-7.42,0-13.43-6.01-13.43-13.43v-77.13c0-1.72-2.47-1.98-2.83-.3l-11.84,54.96c-1.07,4.98-5.48,8.54-10.57,8.54h-9.6c-5.01,0-9.37-3.45-10.52-8.32l-13.33-56.37c-.39-1.65-2.83-1.37-2.83.33v83.97c0,4.29-3.48,7.76-7.76,7.76h-6.15c-7.42,0-13.43-6.01-13.43-13.43v-102.03c0-4.83,3.92-8.75,8.75-8.75h19.69c6.13,0,11.48,4.15,13,10.08l15.68,60.93c.37,1.45,2.45,1.43,2.78-.04l14.69-64.17c.91-3.98,4.45-6.8,8.53-6.8h19.64c7.42,0,13.43,6.01,13.43,13.43Z"/>
      <circle class="cls-1" cx="208.01" cy="139.06" r="17.5"/>
    </g>
    <g>
      <path class="cls-1" d="M43.52,616.74v-11.43c0-4.6,3.73-8.33,8.33-8.33h43.72s-79.4,79.4-79.4,79.4l19.33,19.33,69.53-69.53v42.19c0,7.55,3.06,14.38,8.01,19.33,4.95,4.95,11.79,8.01,19.33,8.01v-126.07s-88.12,0-88.12,0c-15.51,0-28.08,12.57-28.08,28.08v34.95s11.42,0,11.42,0c8.79,0,15.93-7.13,15.93-15.93Z"/>
      <path class="cls-1" d="M132.38,724.52v103.02c0,4.29-3.48,7.76-7.76,7.76h-6.15c-7.42,0-13.43-6.01-13.43-13.43v-77.13c0-1.72-2.47-1.98-2.83-.3l-11.84,54.96c-1.07,4.98-5.48,8.54-10.57,8.54h-9.6c-5.01,0-9.37-3.45-10.52-8.32l-13.33-56.37c-.39-1.65-2.83-1.37-2.83.33v83.97c0,4.29-3.48,7.76-7.76,7.76h-6.15c-7.42,0-13.43-6.01-13.43-13.43v-102.03c0-4.83,3.92-8.75,8.75-8.75h19.69c6.13,0,11.48,4.15,13,10.08l15.68,60.93c.37,1.45,2.45,1.43,2.78-.04l14.69-64.17c.91-3.98,4.45-6.8,8.53-6.8h19.64c7.42,0,13.43,6.01,13.43,13.43Z"/>
      <circle class="cls-1" cx="74.28" cy="695.71" r="17.5"/>
    </g>
    <g>
      <path class="cls-1" d="M104.42,1066.53v11.43c0,4.6-3.73,8.33-8.33,8.33h-43.72s79.4-79.4,79.4-79.4l-19.33-19.33-69.53,69.53v-42.19c0-7.55-3.06-14.38-8.01-19.33-4.95-4.95-11.79-8.01-19.33-8.01v126.07s88.12,0,88.12,0c15.51,0,28.08-12.57,28.08-28.08v-34.95s-11.42,0-11.42,0c-8.79,0-15.93,7.13-15.93,15.93Z"/>
      <path class="cls-1" d="M15.56,958.75v-103.02c0-4.29,3.48-7.76,7.76-7.76h6.15c7.42,0,13.43,6.01,13.43,13.43v77.13c0,1.72,2.47,1.98,2.83.3l11.84-54.96c1.07-4.98,5.48-8.54,10.57-8.54h9.6c5.01,0,9.37,3.45,10.52,8.32l13.33,56.37c.39,1.65,2.83,1.37,2.83-.33v-83.97c0-4.29,3.48-7.76,7.76-7.76h6.15c7.42,0,13.43,6.01,13.43,13.43v102.03c0,4.83-3.92,8.75-8.75,8.75h-19.69c-6.13,0-11.48-4.15-13-10.08l-15.68-60.93c-.37-1.45-2.45-1.43-2.78.04l-14.69,64.17c-.91,3.98-4.45,6.8-8.53,6.8h-19.64c-7.42,0-13.43-6.01-13.43-13.43Z"/>
      <circle class="cls-1" cx="73.66" cy="987.56" r="17.5"/>
    </g>
    <g>
      <path class="cls-1" d="M177.25,1066.53v11.43c0,4.6,3.73,8.33,8.33,8.33h43.72l-79.4-79.4,19.33-19.33,69.53,69.53v-42.19c0-7.55,3.06-14.38,8.01-19.33,4.95-4.95,11.79-8.01,19.33-8.01v126.07h-88.12c-15.51,0-28.08-12.57-28.08-28.08v-34.95s11.42,0,11.42,0c8.79,0,15.93,7.13,15.93,15.93Z"/>
      <path class="cls-1" d="M252.68,972.17h-19.64c-4.08,0-7.62-2.82-8.53-6.8l-14.69-64.17c-.33-1.46-2.41-1.49-2.78-.04l-15.68,60.93c-1.53,5.93-6.88,10.08-13,10.08h-19.69c-4.83,0-8.75-3.92-8.75-8.75v-102.03c0-7.42,6.01-13.43,13.43-13.43h6.15c4.29,0,7.76,3.48,7.76,7.76v83.97c0,1.7,2.43,1.98,2.83.33l13.33-56.37c1.15-4.88,5.51-8.32,10.52-8.32h9.6c5.09,0,9.5,3.56,10.57,8.54l11.84,54.96c.36,1.68,2.83,1.42,2.83-.3v-77.13c0-7.42,6.01-13.43,13.43-13.43h6.15c4.29,0,7.76,3.48,7.76,7.76v103.02c0,7.42-6.01,13.43-13.43,13.43Z"/>
      <circle class="cls-1" cx="208.01" cy="987.56" r="17.5"/>
    </g>
    <g>
      <path class="cls-1" d="M238.14,616.74v-11.43c0-4.6-3.73-8.33-8.33-8.33h-43.72l79.4,79.4-19.33,19.33-69.53-69.53v42.19c0,7.55-3.06,14.38-8.01,19.33-4.95,4.95-11.79,8.01-19.33,8.01v-126.07h88.12c15.51,0,28.08,12.57,28.08,28.08v34.95h-11.42c-8.79,0-15.93-7.13-15.93-15.93Z"/>
      <path class="cls-1" d="M162.71,711.1h19.64c4.08,0,7.62,2.82,8.53,6.8l14.69,64.17c.33,1.46,2.41,1.49,2.78.04l15.68-60.93c1.53-5.93,6.88-10.08,13-10.08h19.69c4.83,0,8.75,3.92,8.75,8.75v102.03c0,7.42-6.01,13.43-13.43,13.43h-6.15c-4.29,0-7.76-3.48-7.76-7.76v-83.97c0-1.7-2.43-1.98-2.83-.33l-13.33,56.37c-1.15,4.88-5.51,8.32-10.52,8.32h-9.6c-5.09,0-9.5-3.56-10.57-8.54l-11.84-54.96c-.36-1.68-2.83-1.42-2.83.3v77.13c0,7.42-6.01,13.43-13.43,13.43h-6.15c-4.29,0-7.76-3.48-7.76-7.76v-103.02c0-7.42,6.01-13.43,13.43-13.43Z"/>
      <circle class="cls-1" cx="207.38" cy="695.71" r="17.5"/>
    </g>
    <g>
      <path class="cls-1" d="M371.25,60.09v-11.43c0-4.6-3.73-8.33-8.33-8.33h-43.72l79.4,79.4-19.33,19.33-69.53-69.53v42.19c0,7.55-3.06,14.38-8.01,19.33-4.95,4.95-11.79,8.01-19.33,8.01V12.98h88.12c15.51,0,28.08,12.57,28.08,28.08v34.95h-11.42c-8.79,0-15.93-7.13-15.93-15.93Z"/>
      <path class="cls-1" d="M295.81,154.44h19.64c4.08,0,7.62,2.82,8.53,6.8l14.69,64.17c.33,1.46,2.41,1.49,2.78.04l15.68-60.93c1.53-5.93,6.88-10.08,13-10.08h19.69c4.83,0,8.75,3.92,8.75,8.75v102.03c0,7.42-6.01,13.43-13.43,13.43h-6.15c-4.29,0-7.76-3.48-7.76-7.76v-83.97c0-1.7-2.43-1.98-2.83-.33l-13.33,56.37c-1.15,4.88-5.51,8.32-10.52,8.32h-9.6c-5.09,0-9.5-3.56-10.57-8.54l-11.84-54.96c-.36-1.68-2.83-1.42-2.83.3v77.13c0,7.42-6.01,13.43-13.43,13.43h-6.15c-4.29,0-7.76-3.48-7.76-7.76v-103.02c0-7.42,6.01-13.43,13.43-13.43Z"/>
      <circle class="cls-1" cx="340.49" cy="139.06" r="17.5"/>
    </g>
    <g>
      <path class="cls-1" d="M310.35,509.87v11.43c0,4.6,3.73,8.33,8.33,8.33h43.72l-79.4-79.4,19.33-19.33,69.53,69.53v-42.19c0-7.55,3.06-14.38,8.01-19.33,4.95-4.95,11.79-8.01,19.33-8.01v126.07h-88.12c-15.51,0-28.08-12.57-28.08-28.08v-34.95h11.42c8.79,0,15.93,7.13,15.93,15.93Z"/>
      <path class="cls-1" d="M385.79,415.52h-19.64c-4.08,0-7.62-2.82-8.53-6.8l-14.69-64.17c-.33-1.46-2.41-1.49-2.78-.04l-15.68,60.93c-1.53,5.93-6.88,10.08-13,10.08h-19.69c-4.83,0-8.75-3.92-8.75-8.75v-102.03c0-7.42,6.01-13.43,13.43-13.43h6.15c4.29,0,7.76,3.48,7.76,7.76v83.97c0,1.7,2.43,1.98,2.83.33l13.33-56.37c1.15-4.88,5.51-8.32,10.52-8.32h9.6c5.09,0,9.5,3.56,10.57,8.54l11.84,54.96c.36,1.68,2.83,1.42,2.83-.3v-77.13c0-7.42,6.01-13.43,13.43-13.43h6.15c4.29,0,7.76,3.48,7.76,7.76v103.02c0,7.42-6.01,13.43-13.43,13.43Z"/>
      <circle class="cls-1" cx="341.11" cy="430.91" r="17.5"/>
    </g>
    <g>
      <path class="cls-1" d="M504.98,509.87v11.43c0,4.6-3.73,8.33-8.33,8.33h-43.72s79.4-79.4,79.4-79.4l-19.33-19.33-69.53,69.53v-42.19c0-7.55-3.06-14.38-8.01-19.33-4.95-4.95-11.79-8.01-19.33-8.01v126.07s88.12,0,88.12,0c15.51,0,28.08-12.57,28.08-28.08v-34.95s-11.42,0-11.42,0c-8.79,0-15.93,7.13-15.93,15.93Z"/>
      <path class="cls-1" d="M416.12,402.09v-103.02c0-4.29,3.48-7.76,7.76-7.76h6.15c7.42,0,13.43,6.01,13.43,13.43v77.13c0,1.72,2.47,1.98,2.83.3l11.84-54.96c1.07-4.98,5.48-8.54,10.57-8.54h9.6c5.01,0,9.37,3.45,10.52,8.32l13.33,56.37c.39,1.65,2.83,1.37,2.83-.33v-83.97c0-4.29,3.48-7.76,7.76-7.76h6.15c7.42,0,13.43,6.01,13.43,13.43v102.03c0,4.83-3.92,8.75-8.75,8.75h-19.69c-6.13,0-11.48-4.15-13-10.08l-15.68-60.93c-.37-1.45-2.45-1.43-2.78.04l-14.69,64.17c-.91,3.98-4.45,6.8-8.53,6.8h-19.64c-7.42,0-13.43-6.01-13.43-13.43Z"/>
      <circle class="cls-1" cx="474.22" cy="430.91" r="17.5"/>
    </g>
    <g>
      <path class="cls-1" d="M444.08,60.09v-11.43c0-4.6,3.73-8.33,8.33-8.33h43.72s-79.4,79.4-79.4,79.4l19.33,19.33,69.53-69.53v42.19c0,7.55,3.06,14.38,8.01,19.33,4.95,4.95,11.79,8.01,19.33,8.01V12.98s-88.12,0-88.12,0c-15.51,0-28.08,12.57-28.08,28.08v34.95s11.42,0,11.42,0c8.79,0,15.93-7.13,15.93-15.93Z"/>
      <path class="cls-1" d="M532.94,167.87v103.02c0,4.29-3.48,7.76-7.76,7.76h-6.15c-7.42,0-13.43-6.01-13.43-13.43v-77.13c0-1.72-2.47-1.98-2.83-.3l-11.84,54.96c-1.07,4.98-5.48,8.54-10.57,8.54h-9.6c-5.01,0-9.37-3.45-10.52-8.32l-13.33-56.37c-.39-1.65-2.83-1.37-2.83.33v83.97c0,4.29-3.48,7.76-7.76,7.76h-6.15c-7.42,0-13.43-6.01-13.43-13.43v-102.03c0-4.83,3.92-8.75,8.75-8.75h19.69c6.13,0,11.48,4.15,13,10.08l15.68,60.93c.37,1.45,2.45,1.43,2.78-.04l14.69-64.17c.91-3.98,4.45-6.8,8.53-6.8h19.64c7.42,0,13.43,6.01,13.43,13.43Z"/>
      <circle class="cls-1" cx="474.84" cy="139.06" r="17.5"/>
    </g>
    <g>
      <path class="cls-1" d="M310.35,616.74v-11.43c0-4.6,3.73-8.33,8.33-8.33h43.72s-79.4,79.4-79.4,79.4l19.33,19.33,69.53-69.53v42.19c0,7.55,3.06,14.38,8.01,19.33,4.95,4.95,11.79,8.01,19.33,8.01v-126.07s-88.12,0-88.12,0c-15.51,0-28.08,12.57-28.08,28.08v34.95s11.42,0,11.42,0c8.79,0,15.93-7.13,15.93-15.93Z"/>
      <path class="cls-1" d="M399.21,724.52v103.02c0,4.29-3.48,7.76-7.76,7.76h-6.15c-7.42,0-13.43-6.01-13.43-13.43v-77.13c0-1.72-2.47-1.98-2.83-.3l-11.84,54.96c-1.07,4.98-5.48,8.54-10.57,8.54h-9.6c-5.01,0-9.37-3.45-10.52-8.32l-13.33-56.37c-.39-1.65-2.83-1.37-2.83.33v83.97c0,4.29-3.48,7.76-7.76,7.76h-6.15c-7.42,0-13.43-6.01-13.43-13.43v-102.03c0-4.83,3.92-8.75,8.75-8.75h19.69c6.13,0,11.48,4.15,13,10.08l15.68,60.93c.37,1.45,2.45,1.43,2.78-.04l14.69-64.17c.91-3.98,4.45-6.8,8.53-6.8h19.64c7.42,0,13.43,6.01,13.43,13.43Z"/>
      <circle class="cls-1" cx="341.11" cy="695.71" r="17.5"/>
    </g>
    <g>
      <path class="cls-1" d="M371.25,1066.53v11.43c0,4.6-3.73,8.33-8.33,8.33h-43.72s79.4-79.4,79.4-79.4l-19.33-19.33-69.53,69.53v-42.19c0-7.55-3.06-14.38-8.01-19.33-4.95-4.95-11.79-8.01-19.33-8.01v126.07s88.12,0,88.12,0c15.51,0,28.08-12.57,28.08-28.08v-34.95s-11.42,0-11.42,0c-8.79,0-15.93,7.13-15.93,15.93Z"/>
      <path class="cls-1" d="M282.39,958.75v-103.02c0-4.29,3.48-7.76,7.76-7.76h6.15c7.42,0,13.43,6.01,13.43,13.43v77.13c0,1.72,2.47,1.98,2.83.3l11.84-54.96c1.07-4.98,5.48-8.54,10.57-8.54h9.6c5.01,0,9.37,3.45,10.52,8.32l13.33,56.37c.39,1.65,2.83,1.37,2.83-.33v-83.97c0-4.29,3.48-7.76,7.76-7.76h6.15c7.42,0,13.43,6.01,13.43,13.43v102.03c0,4.83-3.92,8.75-8.75,8.75h-19.69c-6.13,0-11.48-4.15-13-10.08l-15.68-60.93c-.37-1.45-2.45-1.43-2.78.04l-14.69,64.17c-.91,3.98-4.45,6.8-8.53,6.8h-19.64c-7.42,0-13.43-6.01-13.43-13.43Z"/>
      <circle class="cls-1" cx="340.49" cy="987.56" r="17.5"/>
    </g>
    <g>
      <path class="cls-1" d="M444.08,1066.53v11.43c0,4.6,3.73,8.33,8.33,8.33h43.72l-79.4-79.4,19.33-19.33,69.53,69.53v-42.19c0-7.55,3.06-14.38,8.01-19.33,4.95-4.95,11.79-8.01,19.33-8.01v126.07h-88.12c-15.51,0-28.08-12.57-28.08-28.08v-34.95s11.42,0,11.42,0c8.79,0,15.93,7.13,15.93,15.93Z"/>
      <path class="cls-1" d="M519.51,972.17h-19.64c-4.08,0-7.62-2.82-8.53-6.8l-14.69-64.17c-.33-1.46-2.41-1.49-2.78-.04l-15.68,60.93c-1.53,5.93-6.88,10.08-13,10.08h-19.69c-4.83,0-8.75-3.92-8.75-8.75v-102.03c0-7.42,6.01-13.43,13.43-13.43h6.15c4.29,0,7.76,3.48,7.76,7.76v83.97c0,1.7,2.43,1.98,2.83.33l13.33-56.37c1.15-4.88,5.51-8.32,10.52-8.32h9.6c5.09,0,9.5,3.56,10.57,8.54l11.84,54.96c.36,1.68,2.83,1.42,2.83-.3v-77.13c0-7.42,6.01-13.43,13.43-13.43h6.15c4.29,0,7.76,3.48,7.76,7.76v103.02c0,7.42-6.01,13.43-13.43,13.43Z"/>
      <circle class="cls-1" cx="474.84" cy="987.56" r="17.5"/>
    </g>
    <g>
      <path class="cls-1" d="M504.98,616.74v-11.43c0-4.6-3.73-8.33-8.33-8.33h-43.72l79.4,79.4-19.33,19.33-69.53-69.53v42.19c0,7.55-3.06,14.38-8.01,19.33-4.95,4.95-11.79,8.01-19.33,8.01v-126.07h88.12c15.51,0,28.08,12.57,28.08,28.08v34.95h-11.42c-8.79,0-15.93-7.13-15.93-15.93Z"/>
      <path class="cls-1" d="M429.54,711.1h19.64c4.08,0,7.62,2.82,8.53,6.8l14.69,64.17c.33,1.46,2.41,1.49,2.78.04l15.68-60.93c1.53-5.93,6.88-10.08,13-10.08h19.69c4.83,0,8.75,3.92,8.75,8.75v102.03c0,7.42-6.01,13.43-13.43,13.43h-6.15c-4.29,0-7.76-3.48-7.76-7.76v-83.97c0-1.7-2.43-1.98-2.83-.33l-13.33,56.37c-1.15,4.88-5.51,8.32-10.52,8.32h-9.6c-5.09,0-9.5-3.56-10.57-8.54l-11.84-54.96c-.36-1.68-2.83-1.42-2.83.3v77.13c0,7.42-6.01,13.43-13.43,13.43h-6.15c-4.29,0-7.76-3.48-7.76-7.76v-103.02c0-7.42,6.01-13.43,13.43-13.43Z"/>
      <circle class="cls-1" cx="474.22" cy="695.71" r="17.5"/>
    </g>
  </g>
  <g>
    <g>
      <path class="cls-1" d="M635.92,60.09v-11.43c0-4.6-3.73-8.33-8.33-8.33h-43.72l79.4,79.4-19.33,19.33-69.53-69.53v42.19c0,7.55-3.06,14.38-8.01,19.33-4.95,4.95-11.79,8.01-19.33,8.01V12.98h88.12c15.51,0,28.08,12.57,28.08,28.08v34.95h-11.42c-8.79,0-15.93-7.13-15.93-15.93Z"/>
      <path class="cls-1" d="M560.49,154.44h19.64c4.08,0,7.62,2.82,8.53,6.8l14.69,64.17c.33,1.46,2.41,1.49,2.78.04l15.68-60.93c1.53-5.93,6.88-10.08,13-10.08h19.69c4.83,0,8.75,3.92,8.75,8.75v102.03c0,7.42-6.01,13.43-13.43,13.43h-6.15c-4.29,0-7.76-3.48-7.76-7.76v-83.97c0-1.7-2.43-1.98-2.83-.33l-13.33,56.37c-1.15,4.88-5.51,8.32-10.52,8.32h-9.6c-5.09,0-9.5-3.56-10.57-8.54l-11.84-54.96c-.36-1.68-2.83-1.42-2.83.3v77.13c0,7.42-6.01,13.43-13.43,13.43h-6.15c-4.29,0-7.76-3.48-7.76-7.76v-103.02c0-7.42,6.01-13.43,13.43-13.43Z"/>
      <circle class="cls-1" cx="605.16" cy="139.06" r="17.5"/>
    </g>
    <g>
      <path class="cls-1" d="M575.02,509.87v11.43c0,4.6,3.73,8.33,8.33,8.33h43.72l-79.4-79.4,19.33-19.33,69.53,69.53v-42.19c0-7.55,3.06-14.38,8.01-19.33,4.95-4.95,11.79-8.01,19.33-8.01v126.07h-88.12c-15.51,0-28.08-12.57-28.08-28.08v-34.95h11.42c8.79,0,15.93,7.13,15.93,15.93Z"/>
      <path class="cls-1" d="M650.46,415.52h-19.64c-4.08,0-7.62-2.82-8.53-6.8l-14.69-64.17c-.33-1.46-2.41-1.49-2.78-.04l-15.68,60.93c-1.53,5.93-6.88,10.08-13,10.08h-19.69c-4.83,0-8.75-3.92-8.75-8.75v-102.03c0-7.42,6.01-13.43,13.43-13.43h6.15c4.29,0,7.76,3.48,7.76,7.76v83.97c0,1.7,2.43,1.98,2.83.33l13.33-56.37c1.15-4.88,5.51-8.32,10.52-8.32h9.6c5.09,0,9.5,3.56,10.57,8.54l11.84,54.96c.36,1.68,2.83,1.42,2.83-.3v-77.13c0-7.42,6.01-13.43,13.43-13.43h6.15c4.29,0,7.76,3.48,7.76,7.76v103.02c0,7.42-6.01,13.43-13.43,13.43Z"/>
      <circle class="cls-1" cx="605.78" cy="430.91" r="17.5"/>
    </g>
    <g>
      <path class="cls-1" d="M769.65,509.87v11.43c0,4.6-3.73,8.33-8.33,8.33h-43.72s79.4-79.4,79.4-79.4l-19.33-19.33-69.53,69.53v-42.19c0-7.55-3.06-14.38-8.01-19.33-4.95-4.95-11.79-8.01-19.33-8.01v126.07s88.12,0,88.12,0c15.51,0,28.08-12.57,28.08-28.08v-34.95s-11.42,0-11.42,0c-8.79,0-15.93,7.13-15.93,15.93Z"/>
      <path class="cls-1" d="M680.79,402.09v-103.02c0-4.29,3.48-7.76,7.76-7.76h6.15c7.42,0,13.43,6.01,13.43,13.43v77.13c0,1.72,2.47,1.98,2.83.3l11.84-54.96c1.07-4.98,5.48-8.54,10.57-8.54h9.6c5.01,0,9.37,3.45,10.52,8.32l13.33,56.37c.39,1.65,2.83,1.37,2.83-.33v-83.97c0-4.29,3.48-7.76,7.76-7.76h6.15c7.42,0,13.43,6.01,13.43,13.43v102.03c0,4.83-3.92,8.75-8.75,8.75h-19.69c-6.13,0-11.48-4.15-13-10.08l-15.68-60.93c-.37-1.45-2.45-1.43-2.78.04l-14.69,64.17c-.91,3.98-4.45,6.8-8.53,6.8h-19.64c-7.42,0-13.43-6.01-13.43-13.43Z"/>
      <circle class="cls-1" cx="738.89" cy="430.91" r="17.5"/>
    </g>
    <g>
      <path class="cls-1" d="M708.75,60.09v-11.43c0-4.6,3.73-8.33,8.33-8.33h43.72s-79.4,79.4-79.4,79.4l19.33,19.33,69.53-69.53v42.19c0,7.55,3.06,14.38,8.01,19.33,4.95,4.95,11.79,8.01,19.33,8.01V12.98s-88.12,0-88.12,0c-15.51,0-28.08,12.57-28.08,28.08v34.95s11.42,0,11.42,0c8.79,0,15.93-7.13,15.93-15.93Z"/>
      <path class="cls-1" d="M797.61,167.87v103.02c0,4.29-3.48,7.76-7.76,7.76h-6.15c-7.42,0-13.43-6.01-13.43-13.43v-77.13c0-1.72-2.47-1.98-2.83-.3l-11.84,54.96c-1.07,4.98-5.48,8.54-10.57,8.54h-9.6c-5.01,0-9.37-3.45-10.52-8.32l-13.33-56.37c-.39-1.65-2.83-1.37-2.83.33v83.97c0,4.29-3.48,7.76-7.76,7.76h-6.15c-7.42,0-13.43-6.01-13.43-13.43v-102.03c0-4.83,3.92-8.75,8.75-8.75h19.69c6.13,0,11.48,4.15,13,10.08l15.68,60.93c.37,1.45,2.45,1.43,2.78-.04l14.69-64.17c.91-3.98,4.45-6.8,8.53-6.8h19.64c7.42,0,13.43,6.01,13.43,13.43Z"/>
      <circle class="cls-1" cx="739.51" cy="139.06" r="17.5"/>
    </g>
    <g>
      <path class="cls-1" d="M575.02,616.74v-11.43c0-4.6,3.73-8.33,8.33-8.33h43.72s-79.4,79.4-79.4,79.4l19.33,19.33,69.53-69.53v42.19c0,7.55,3.06,14.38,8.01,19.33,4.95,4.95,11.79,8.01,19.33,8.01v-126.07s-88.12,0-88.12,0c-15.51,0-28.08,12.57-28.08,28.08v34.95s11.42,0,11.42,0c8.79,0,15.93-7.13,15.93-15.93Z"/>
      <path class="cls-1" d="M663.88,724.52v103.02c0,4.29-3.48,7.76-7.76,7.76h-6.15c-7.42,0-13.43-6.01-13.43-13.43v-77.13c0-1.72-2.47-1.98-2.83-.3l-11.84,54.96c-1.07,4.98-5.48,8.54-10.57,8.54h-9.6c-5.01,0-9.37-3.45-10.52-8.32l-13.33-56.37c-.39-1.65-2.83-1.37-2.83.33v83.97c0,4.29-3.48,7.76-7.76,7.76h-6.15c-7.42,0-13.43-6.01-13.43-13.43v-102.03c0-4.83,3.92-8.75,8.75-8.75h19.69c6.13,0,11.48,4.15,13,10.08l15.68,60.93c.37,1.45,2.45,1.43,2.78-.04l14.69-64.17c.91-3.98,4.45-6.8,8.53-6.8h19.64c7.42,0,13.43,6.01,13.43,13.43Z"/>
      <circle class="cls-1" cx="605.78" cy="695.71" r="17.5"/>
    </g>
    <g>
      <path class="cls-1" d="M635.92,1066.53v11.43c0,4.6-3.73,8.33-8.33,8.33h-43.72s79.4-79.4,79.4-79.4l-19.33-19.33-69.53,69.53v-42.19c0-7.55-3.06-14.38-8.01-19.33-4.95-4.95-11.79-8.01-19.33-8.01v126.07s88.12,0,88.12,0c15.51,0,28.08-12.57,28.08-28.08v-34.95s-11.42,0-11.42,0c-8.79,0-15.93,7.13-15.93,15.93Z"/>
      <path class="cls-1" d="M547.06,958.75v-103.02c0-4.29,3.48-7.76,7.76-7.76h6.15c7.42,0,13.43,6.01,13.43,13.43v77.13c0,1.72,2.47,1.98,2.83.3l11.84-54.96c1.07-4.98,5.48-8.54,10.57-8.54h9.6c5.01,0,9.37,3.45,10.52,8.32l13.33,56.37c.39,1.65,2.83,1.37,2.83-.33v-83.97c0-4.29,3.48-7.76,7.76-7.76h6.15c7.42,0,13.43,6.01,13.43,13.43v102.03c0,4.83-3.92,8.75-8.75,8.75h-19.69c-6.13,0-11.48-4.15-13-10.08l-15.68-60.93c-.37-1.45-2.45-1.43-2.78.04l-14.69,64.17c-.91,3.98-4.45,6.8-8.53,6.8h-19.64c-7.42,0-13.43-6.01-13.43-13.43Z"/>
      <circle class="cls-1" cx="605.16" cy="987.56" r="17.5"/>
    </g>
    <g>
      <path class="cls-1" d="M708.75,1066.53v11.43c0,4.6,3.73,8.33,8.33,8.33h43.72l-79.4-79.4,19.33-19.33,69.53,69.53v-42.19c0-7.55,3.06-14.38,8.01-19.33,4.95-4.95,11.79-8.01,19.33-8.01v126.07h-88.12c-15.51,0-28.08-12.57-28.08-28.08v-34.95h11.42c8.79,0,15.93,7.13,15.93,15.93Z"/>
      <path class="cls-1" d="M784.19,972.17h-19.64c-4.08,0-7.62-2.82-8.53-6.8l-14.69-64.17c-.33-1.46-2.41-1.49-2.78-.04l-15.68,60.93c-1.53,5.93-6.88,10.08-13,10.08h-19.69c-4.83,0-8.75-3.92-8.75-8.75v-102.03c0-7.42,6.01-13.43,13.43-13.43h6.15c4.29,0,7.76,3.48,7.76,7.76v83.97c0,1.7,2.43,1.98,2.83.33l13.33-56.37c1.15-4.88,5.51-8.32,10.52-8.32h9.6c5.09,0,9.5,3.56,10.57,8.54l11.84,54.96c.36,1.68,2.83,1.42,2.83-.3v-77.13c0-7.42,6.01-13.43,13.43-13.43h6.15c4.29,0,7.76,3.48,7.76,7.76v103.02c0,7.42-6.01,13.43-13.43,13.43Z"/>
      <circle class="cls-1" cx="739.51" cy="987.56" r="17.5"/>
    </g>
    <g>
      <path class="cls-1" d="M769.65,616.74v-11.43c0-4.6-3.73-8.33-8.33-8.33h-43.72l79.4,79.4-19.33,19.33-69.53-69.53v42.19c0,7.55-3.06,14.38-8.01,19.33-4.95,4.95-11.79,8.01-19.33,8.01v-126.07h88.12c15.51,0,28.08,12.57,28.08,28.08v34.95h-11.42c-8.79,0-15.93-7.13-15.93-15.93Z"/>
      <path class="cls-1" d="M694.21,711.1h19.64c4.08,0,7.62,2.82,8.53,6.8l14.69,64.17c.33,1.46,2.41,1.49,2.78.04l15.68-60.93c1.53-5.93,6.88-10.08,13-10.08h19.69c4.83,0,8.75,3.92,8.75,8.75v102.03c0,7.42-6.01,13.43-13.43,13.43h-6.15c-4.29,0-7.76-3.48-7.76-7.76v-83.97c0-1.7-2.43-1.98-2.83-.33l-13.33,56.37c-1.15,4.88-5.51,8.32-10.52,8.32h-9.6c-5.09,0-9.5-3.56-10.57-8.54l-11.84-54.96c-.36-1.68-2.83-1.42-2.83.3v77.13c0,7.42-6.01,13.43-13.43,13.43h-6.15c-4.29,0-7.76-3.48-7.76-7.76v-103.02c0-7.42,6.01-13.43,13.43-13.43Z"/>
      <circle class="cls-1" cx="738.89" cy="695.71" r="17.5"/>
    </g>
    <g>
      <path class="cls-1" d="M902.75,60.09v-11.43c0-4.6-3.73-8.33-8.33-8.33h-43.72l79.4,79.4-19.33,19.33-69.53-69.53v42.19c0,7.55-3.06,14.38-8.01,19.33-4.95,4.95-11.79,8.01-19.33,8.01V12.98h88.12c15.51,0,28.08,12.57,28.08,28.08v34.95h-11.42c-8.79,0-15.93-7.13-15.93-15.93Z"/>
      <path class="cls-1" d="M827.32,154.44h19.64c4.08,0,7.62,2.82,8.53,6.8l14.69,64.17c.33,1.46,2.41,1.49,2.78.04l15.68-60.93c1.53-5.93,6.88-10.08,13-10.08h19.69c4.83,0,8.75,3.92,8.75,8.75v102.03c0,7.42-6.01,13.43-13.43,13.43h-6.15c-4.29,0-7.76-3.48-7.76-7.76v-83.97c0-1.7-2.43-1.98-2.83-.33l-13.33,56.37c-1.15,4.88-5.51,8.32-10.52,8.32h-9.6c-5.09,0-9.5-3.56-10.57-8.54l-11.84-54.96c-.36-1.68-2.83-1.42-2.83.3v77.13c0,7.42-6.01,13.43-13.43,13.43h-6.15c-4.29,0-7.76-3.48-7.76-7.76v-103.02c0-7.42,6.01-13.43,13.43-13.43Z"/>
      <circle class="cls-1" cx="871.99" cy="139.06" r="17.5"/>
    </g>
    <g>
      <path class="cls-1" d="M841.86,509.87v11.43c0,4.6,3.73,8.33,8.33,8.33h43.72l-79.4-79.4,19.33-19.33,69.53,69.53v-42.19c0-7.55,3.06-14.38,8.01-19.33,4.95-4.95,11.79-8.01,19.33-8.01v126.07h-88.12c-15.51,0-28.08-12.57-28.08-28.08v-34.95h11.42c8.79,0,15.93,7.13,15.93,15.93Z"/>
      <path class="cls-1" d="M917.29,415.52h-19.64c-4.08,0-7.62-2.82-8.53-6.8l-14.69-64.17c-.33-1.46-2.41-1.49-2.78-.04l-15.68,60.93c-1.53,5.93-6.88,10.08-13,10.08h-19.69c-4.83,0-8.75-3.92-8.75-8.75v-102.03c0-7.42,6.01-13.43,13.43-13.43h6.15c4.29,0,7.76,3.48,7.76,7.76v83.97c0,1.7,2.43,1.98,2.83.33l13.33-56.37c1.15-4.88,5.51-8.32,10.52-8.32h9.6c5.09,0,9.5,3.56,10.57,8.54l11.84,54.96c.36,1.68,2.83,1.42,2.83-.3v-77.13c0-7.42,6.01-13.43,13.43-13.43h6.15c4.29,0,7.76,3.48,7.76,7.76v103.02c0,7.42-6.01,13.43-13.43,13.43Z"/>
      <circle class="cls-1" cx="872.62" cy="430.91" r="17.5"/>
    </g>
    <g>
      <path class="cls-1" d="M1036.48,509.87v11.43c0,4.6-3.73,8.33-8.33,8.33h-43.72s79.4-79.4,79.4-79.4l-19.33-19.33-69.53,69.53v-42.19c0-7.55-3.06-14.38-8.01-19.33-4.95-4.95-11.79-8.01-19.33-8.01v126.07s88.12,0,88.12,0c15.51,0,28.08-12.57,28.08-28.08v-34.95s-11.42,0-11.42,0c-8.79,0-15.93,7.13-15.93,15.93Z"/>
      <path class="cls-1" d="M947.62,402.09v-103.02c0-4.29,3.48-7.76,7.76-7.76h6.15c7.42,0,13.43,6.01,13.43,13.43v77.13c0,1.72,2.47,1.98,2.83.3l11.84-54.96c1.07-4.98,5.48-8.54,10.57-8.54h9.6c5.01,0,9.37,3.45,10.52,8.32l13.33,56.37c.39,1.65,2.83,1.37,2.83-.33v-83.97c0-4.29,3.48-7.76,7.76-7.76h6.15c7.42,0,13.43,6.01,13.43,13.43v102.03c0,4.83-3.92,8.75-8.75,8.75h-19.69c-6.13,0-11.48-4.15-13-10.08l-15.68-60.93c-.37-1.45-2.45-1.43-2.78.04l-14.69,64.17c-.91,3.98-4.45,6.8-8.53,6.8h-19.64c-7.42,0-13.43-6.01-13.43-13.43Z"/>
      <circle class="cls-1" cx="1005.72" cy="430.91" r="17.5"/>
    </g>
    <g>
      <path class="cls-1" d="M975.58,60.09v-11.43c0-4.6,3.73-8.33,8.33-8.33h43.72s-79.4,79.4-79.4,79.4l19.33,19.33,69.53-69.53v42.19c0,7.55,3.06,14.38,8.01,19.33,4.95,4.95,11.79,8.01,19.33,8.01V12.98s-88.12,0-88.12,0c-15.51,0-28.08,12.57-28.08,28.08v34.95s11.42,0,11.42,0c8.79,0,15.93-7.13,15.93-15.93Z"/>
      <path class="cls-1" d="M1064.44,167.87v103.02c0,4.29-3.48,7.76-7.76,7.76h-6.15c-7.42,0-13.43-6.01-13.43-13.43v-77.13c0-1.72-2.47-1.98-2.83-.3l-11.84,54.96c-1.07,4.98-5.48,8.54-10.57,8.54h-9.6c-5.01,0-9.37-3.45-10.52-8.32l-13.33-56.37c-.39-1.65-2.83-1.37-2.83.33v83.97c0,4.29-3.48,7.76-7.76,7.76h-6.15c-7.42,0-13.43-6.01-13.43-13.43v-102.03c0-4.83,3.92-8.75,8.75-8.75h19.69c6.13,0,11.48,4.15,13,10.08l15.68,60.93c.37,1.45,2.45,1.43,2.78-.04l14.69-64.17c.91-3.98,4.45-6.8,8.53-6.8h19.64c7.42,0,13.43,6.01,13.43,13.43Z"/>
      <circle class="cls-1" cx="1006.34" cy="139.06" r="17.5"/>
    </g>
    <g>
      <path class="cls-1" d="M841.86,616.74v-11.43c0-4.6,3.73-8.33,8.33-8.33h43.72s-79.4,79.4-79.4,79.4l19.33,19.33,69.53-69.53v42.19c0,7.55,3.06,14.38,8.01,19.33,4.95,4.95,11.79,8.01,19.33,8.01v-126.07s-88.12,0-88.12,0c-15.51,0-28.08,12.57-28.08,28.08v34.95s11.42,0,11.42,0c8.79,0,15.93-7.13,15.93-15.93Z"/>
      <path class="cls-1" d="M930.72,724.52v103.02c0,4.29-3.48,7.76-7.76,7.76h-6.15c-7.42,0-13.43-6.01-13.43-13.43v-77.13c0-1.72-2.47-1.98-2.83-.3l-11.84,54.96c-1.07,4.98-5.48,8.54-10.57,8.54h-9.6c-5.01,0-9.37-3.45-10.52-8.32l-13.33-56.37c-.39-1.65-2.83-1.37-2.83.33v83.97c0,4.29-3.48,7.76-7.76,7.76h-6.15c-7.42,0-13.43-6.01-13.43-13.43v-102.03c0-4.83,3.92-8.75,8.75-8.75h19.69c6.13,0,11.48,4.15,13,10.08l15.68,60.93c.37,1.45,2.45,1.43,2.78-.04l14.69-64.17c.91-3.98,4.45-6.8,8.53-6.8h19.64c7.42,0,13.43,6.01,13.43,13.43Z"/>
      <circle class="cls-1" cx="872.62" cy="695.71" r="17.5"/>
    </g>
    <g>
      <path class="cls-1" d="M902.75,1066.53v11.43c0,4.6-3.73,8.33-8.33,8.33h-43.72s79.4-79.4,79.4-79.4l-19.33-19.33-69.53,69.53v-42.19c0-7.55-3.06-14.38-8.01-19.33-4.95-4.95-11.79-8.01-19.33-8.01v126.07s88.12,0,88.12,0c15.51,0,28.08-12.57,28.08-28.08v-34.95s-11.42,0-11.42,0c-8.79,0-15.93,7.13-15.93,15.93Z"/>
      <path class="cls-1" d="M813.89,958.75v-103.02c0-4.29,3.48-7.76,7.76-7.76h6.15c7.42,0,13.43,6.01,13.43,13.43v77.13c0,1.72,2.47,1.98,2.83.3l11.84-54.96c1.07-4.98,5.48-8.54,10.57-8.54h9.6c5.01,0,9.37,3.45,10.52,8.32l13.33,56.37c.39,1.65,2.83,1.37,2.83-.33v-83.97c0-4.29,3.48-7.76,7.76-7.76h6.15c7.42,0,13.43,6.01,13.43,13.43v102.03c0,4.83-3.92,8.75-8.75,8.75h-19.69c-6.13,0-11.48-4.15-13-10.08l-15.68-60.93c-.37-1.45-2.45-1.43-2.78.04l-14.69,64.17c-.91,3.98-4.45,6.8-8.53,6.8h-19.64c-7.42,0-13.43-6.01-13.43-13.43Z"/>
      <circle class="cls-1" cx="871.99" cy="987.56" r="17.5"/>
    </g>
    <g>
      <path class="cls-1" d="M975.58,1066.53v11.43c0,4.6,3.73,8.33,8.33,8.33h43.72l-79.4-79.4,19.33-19.33,69.53,69.53v-42.19c0-7.55,3.06-14.38,8.01-19.33,4.95-4.95,11.79-8.01,19.33-8.01v126.07h-88.12c-15.51,0-28.08-12.57-28.08-28.08v-34.95s11.42,0,11.42,0c8.79,0,15.93,7.13,15.93,15.93Z"/>
      <path class="cls-1" d="M1051.02,972.17h-19.64c-4.08,0-7.62-2.82-8.53-6.8l-14.69-64.17c-.33-1.46-2.41-1.49-2.78-.04l-15.68,60.93c-1.53,5.93-6.88,10.08-13,10.08h-19.69c-4.83,0-8.75-3.92-8.75-8.75v-102.03c0-7.42,6.01-13.43,13.43-13.43h6.15c4.29,0,7.76,3.48,7.76,7.76v83.97c0,1.7,2.43,1.98,2.83.33l13.33-56.37c1.15-4.88,5.51-8.32,10.52-8.32h9.6c5.09,0,9.5,3.56,10.57,8.54l11.84,54.96c.36,1.68,2.83,1.42,2.83-.3v-77.13c0-7.42,6.01-13.43,13.43-13.43h6.15c4.29,0,7.76,3.48,7.76,7.76v103.02c0,7.42-6.01,13.43-13.43,13.43Z"/>
      <circle class="cls-1" cx="1006.34" cy="987.56" r="17.5"/>
    </g>
    <g>
      <path class="cls-1" d="M1036.48,616.74v-11.43c0-4.6-3.73-8.33-8.33-8.33h-43.72l79.4,79.4-19.33,19.33-69.53-69.53v42.19c0,7.55-3.06,14.38-8.01,19.33-4.95,4.95-11.79,8.01-19.33,8.01v-126.07h88.12c15.51,0,28.08,12.57,28.08,28.08v34.95h-11.42c-8.79,0-15.93-7.13-15.93-15.93Z"/>
      <path class="cls-1" d="M961.05,711.1h19.64c4.08,0,7.62,2.82,8.53,6.8l14.69,64.17c.33,1.46,2.41,1.49,2.78.04l15.68-60.93c1.53-5.93,6.88-10.08,13-10.08h19.69c4.83,0,8.75,3.92,8.75,8.75v102.03c0,7.42-6.01,13.43-13.43,13.43h-6.15c-4.29,0-7.76-3.48-7.76-7.76v-83.97c0-1.7-2.43-1.98-2.83-.33l-13.33,56.37c-1.15,4.88-5.51,8.32-10.52,8.32h-9.6c-5.09,0-9.5-3.56-10.57-8.54l-11.84-54.96c-.36-1.68-2.83-1.42-2.83.3v77.13c0,7.42-6.01,13.43-13.43,13.43h-6.15c-4.29,0-7.76-3.48-7.76-7.76v-103.02c0-7.42,6.01-13.43,13.43-13.43Z"/>
      <circle class="cls-1" cx="1005.72" cy="695.71" r="17.5"/>
    </g>
  </g>
</svg>